<?xml version="1.0" encoding="utf-8"?>
<!-- Generator: Adobe Illustrator 21.0.0, SVG Export Plug-In . SVG Version: 6.00 Build 0)  -->
<svg version="1.1" id="圖層_1" xmlns="http://www.w3.org/2000/svg" xmlns:xlink="http://www.w3.org/1999/xlink" x="0px" y="0px"
	 viewBox="0 0 21 16" style="enable-background:new 0 0 21 16;" xml:space="preserve">
<path d="M8,16c0-0.1,0.1-0.1,0.2-0.2l8.2-7.7L8.2,0.2C8.1,0.2,8,0.1,8,0h4.6c0,0.1,0.1,0.2,0.2,0.2L21,8.1l-8.2,7.7
	c-0.1,0.1-0.1,0.1-0.2,0.2H8z M19.8,7.9c0,0.1,0,0.2,0,0.3L20,8.1L19.8,7.9z"/>
<path d="M0,16c0-0.1,0.1-0.1,0.2-0.2l8.2-7.7L0.2,0.2C0.1,0.2,0,0.1,0,0h4.7c0,0.1,0.1,0.2,0.2,0.2L13,8.1l-8.2,7.7
	c-0.1,0.1-0.1,0.1-0.2,0.2H0z M11.8,7.9c0,0.1,0,0.2,0,0.3L12,8.1L11.8,7.9z"/>
</svg>
